<mxfile host="app.diagrams.net" modified="2024-04-23T11:27:53.641Z" agent="Mozilla/5.0 (Windows NT 10.0; Win64; x64) AppleWebKit/537.36 (KHTML, like Gecko) Chrome/124.0.0.0 Safari/537.36 Edg/124.0.0.0" etag="-kJez2UAJ9j0Em2d8763" version="24.2.8" type="github">
  <diagram name="Page-1" id="c00ayqlRFVBwxX4zgBWf">
    <mxGraphModel dx="1017" dy="1061" grid="1" gridSize="10" guides="1" tooltips="1" connect="1" arrows="1" fold="1" page="1" pageScale="1" pageWidth="850" pageHeight="1100" math="0" shadow="0">
      <root>
        <mxCell id="0" />
        <mxCell id="1" parent="0" />
        <mxCell id="3ISoc4VKii2FlMqEdn1b-9" style="edgeStyle=orthogonalEdgeStyle;rounded=0;orthogonalLoop=1;jettySize=auto;html=1;exitX=1;exitY=0.5;exitDx=0;exitDy=0;entryX=0;entryY=0.5;entryDx=0;entryDy=0;endArrow=none;endFill=0;" parent="1" source="3ISoc4VKii2FlMqEdn1b-1" target="3ISoc4VKii2FlMqEdn1b-7" edge="1">
          <mxGeometry relative="1" as="geometry" />
        </mxCell>
        <mxCell id="3ISoc4VKii2FlMqEdn1b-18" style="edgeStyle=orthogonalEdgeStyle;rounded=0;orthogonalLoop=1;jettySize=auto;html=1;exitX=0.25;exitY=0;exitDx=0;exitDy=0;endArrow=oval;endFill=1;" parent="1" source="3ISoc4VKii2FlMqEdn1b-1" edge="1">
          <mxGeometry relative="1" as="geometry">
            <mxPoint x="119.90476190476193" y="80" as="targetPoint" />
          </mxGeometry>
        </mxCell>
        <mxCell id="3ISoc4VKii2FlMqEdn1b-20" style="edgeStyle=orthogonalEdgeStyle;rounded=0;orthogonalLoop=1;jettySize=auto;html=1;exitX=0.5;exitY=0;exitDx=0;exitDy=0;endArrow=oval;endFill=0;" parent="1" source="3ISoc4VKii2FlMqEdn1b-1" edge="1">
          <mxGeometry relative="1" as="geometry">
            <mxPoint x="149.90476190476193" y="90" as="targetPoint" />
          </mxGeometry>
        </mxCell>
        <mxCell id="3ISoc4VKii2FlMqEdn1b-29" style="edgeStyle=orthogonalEdgeStyle;rounded=0;orthogonalLoop=1;jettySize=auto;html=1;exitX=0;exitY=0.25;exitDx=0;exitDy=0;endArrow=oval;endFill=0;" parent="1" source="3ISoc4VKii2FlMqEdn1b-1" edge="1">
          <mxGeometry relative="1" as="geometry">
            <mxPoint x="50" y="155.04761904761904" as="targetPoint" />
          </mxGeometry>
        </mxCell>
        <mxCell id="3ISoc4VKii2FlMqEdn1b-31" style="edgeStyle=orthogonalEdgeStyle;rounded=0;orthogonalLoop=1;jettySize=auto;html=1;exitX=0;exitY=0.75;exitDx=0;exitDy=0;endArrow=oval;endFill=0;" parent="1" source="3ISoc4VKii2FlMqEdn1b-1" edge="1">
          <mxGeometry relative="1" as="geometry">
            <mxPoint x="50" y="185.04761904761904" as="targetPoint" />
          </mxGeometry>
        </mxCell>
        <mxCell id="3ISoc4VKii2FlMqEdn1b-33" style="edgeStyle=orthogonalEdgeStyle;rounded=0;orthogonalLoop=1;jettySize=auto;html=1;exitX=0.25;exitY=1;exitDx=0;exitDy=0;endArrow=oval;endFill=0;" parent="1" source="3ISoc4VKii2FlMqEdn1b-1" edge="1">
          <mxGeometry relative="1" as="geometry">
            <mxPoint x="110" y="230" as="targetPoint" />
          </mxGeometry>
        </mxCell>
        <mxCell id="3ISoc4VKii2FlMqEdn1b-1" value="Asunto" style="rounded=0;whiteSpace=wrap;html=1;perimeterSpacing=0;gradientColor=none;" parent="1" vertex="1">
          <mxGeometry x="90" y="140" width="120" height="60" as="geometry" />
        </mxCell>
        <mxCell id="3ISoc4VKii2FlMqEdn1b-10" style="rounded=0;orthogonalLoop=1;jettySize=auto;html=1;exitX=0.75;exitY=1;exitDx=0;exitDy=0;endArrow=oval;endFill=1;" parent="1" source="3ISoc4VKii2FlMqEdn1b-2" edge="1">
          <mxGeometry relative="1" as="geometry">
            <mxPoint x="179.90476190476193" y="570" as="targetPoint" />
          </mxGeometry>
        </mxCell>
        <mxCell id="3ISoc4VKii2FlMqEdn1b-13" style="edgeStyle=orthogonalEdgeStyle;rounded=0;orthogonalLoop=1;jettySize=auto;html=1;exitX=0.5;exitY=1;exitDx=0;exitDy=0;endArrow=oval;endFill=0;" parent="1" source="3ISoc4VKii2FlMqEdn1b-2" edge="1">
          <mxGeometry relative="1" as="geometry">
            <mxPoint x="149.90476190476193" y="590" as="targetPoint" />
          </mxGeometry>
        </mxCell>
        <mxCell id="3ISoc4VKii2FlMqEdn1b-15" style="edgeStyle=orthogonalEdgeStyle;rounded=0;orthogonalLoop=1;jettySize=auto;html=1;exitX=0.25;exitY=1;exitDx=0;exitDy=0;endArrow=oval;endFill=0;" parent="1" source="3ISoc4VKii2FlMqEdn1b-2" edge="1">
          <mxGeometry relative="1" as="geometry">
            <mxPoint x="119.90476190476193" y="580" as="targetPoint" />
          </mxGeometry>
        </mxCell>
        <mxCell id="3ISoc4VKii2FlMqEdn1b-2" value="Cliente" style="rounded=0;whiteSpace=wrap;html=1;" parent="1" vertex="1">
          <mxGeometry x="90" y="470" width="120" height="60" as="geometry" />
        </mxCell>
        <mxCell id="3ISoc4VKii2FlMqEdn1b-4" style="edgeStyle=orthogonalEdgeStyle;rounded=0;orthogonalLoop=1;jettySize=auto;html=1;exitX=0.5;exitY=1;exitDx=0;exitDy=0;entryX=0.5;entryY=0;entryDx=0;entryDy=0;endArrow=none;endFill=0;" parent="1" source="3ISoc4VKii2FlMqEdn1b-3" target="3ISoc4VKii2FlMqEdn1b-2" edge="1">
          <mxGeometry relative="1" as="geometry" />
        </mxCell>
        <mxCell id="3ISoc4VKii2FlMqEdn1b-5" style="edgeStyle=orthogonalEdgeStyle;rounded=0;orthogonalLoop=1;jettySize=auto;html=1;exitX=0.5;exitY=0;exitDx=0;exitDy=0;endArrow=none;endFill=0;" parent="1" source="3ISoc4VKii2FlMqEdn1b-3" target="3ISoc4VKii2FlMqEdn1b-1" edge="1">
          <mxGeometry relative="1" as="geometry" />
        </mxCell>
        <mxCell id="3ISoc4VKii2FlMqEdn1b-3" value="corresponde a" style="rhombus;whiteSpace=wrap;html=1;" parent="1" vertex="1">
          <mxGeometry x="85" y="300" width="130" height="80" as="geometry" />
        </mxCell>
        <mxCell id="3ISoc4VKii2FlMqEdn1b-23" style="edgeStyle=orthogonalEdgeStyle;rounded=0;orthogonalLoop=1;jettySize=auto;html=1;exitX=0.25;exitY=0;exitDx=0;exitDy=0;endArrow=oval;endFill=1;" parent="1" source="3ISoc4VKii2FlMqEdn1b-6" edge="1">
          <mxGeometry relative="1" as="geometry">
            <mxPoint x="455.1428571428571" y="70" as="targetPoint" />
          </mxGeometry>
        </mxCell>
        <mxCell id="3ISoc4VKii2FlMqEdn1b-25" style="edgeStyle=orthogonalEdgeStyle;rounded=0;orthogonalLoop=1;jettySize=auto;html=1;exitX=0.5;exitY=0;exitDx=0;exitDy=0;endArrow=oval;endFill=0;" parent="1" source="3ISoc4VKii2FlMqEdn1b-6" edge="1">
          <mxGeometry relative="1" as="geometry">
            <mxPoint x="485.1428571428571" y="80" as="targetPoint" />
          </mxGeometry>
        </mxCell>
        <mxCell id="3ISoc4VKii2FlMqEdn1b-27" style="edgeStyle=orthogonalEdgeStyle;rounded=0;orthogonalLoop=1;jettySize=auto;html=1;exitX=0.75;exitY=0;exitDx=0;exitDy=0;endArrow=oval;endFill=0;" parent="1" source="3ISoc4VKii2FlMqEdn1b-6" edge="1">
          <mxGeometry relative="1" as="geometry">
            <mxPoint x="515.1428571428571" y="100" as="targetPoint" />
          </mxGeometry>
        </mxCell>
        <mxCell id="3ISoc4VKii2FlMqEdn1b-6" value="Procurador" style="rounded=0;whiteSpace=wrap;html=1;" parent="1" vertex="1">
          <mxGeometry x="425" y="140" width="120" height="60" as="geometry" />
        </mxCell>
        <mxCell id="3ISoc4VKii2FlMqEdn1b-7" value="llevado por" style="rhombus;whiteSpace=wrap;html=1;" parent="1" vertex="1">
          <mxGeometry x="260" y="130" width="120" height="80" as="geometry" />
        </mxCell>
        <mxCell id="3ISoc4VKii2FlMqEdn1b-8" style="edgeStyle=orthogonalEdgeStyle;rounded=0;orthogonalLoop=1;jettySize=auto;html=1;exitX=0;exitY=0.5;exitDx=0;exitDy=0;entryX=0.973;entryY=0.492;entryDx=0;entryDy=0;entryPerimeter=0;endArrow=none;endFill=0;" parent="1" source="3ISoc4VKii2FlMqEdn1b-6" target="3ISoc4VKii2FlMqEdn1b-7" edge="1">
          <mxGeometry relative="1" as="geometry" />
        </mxCell>
        <mxCell id="3ISoc4VKii2FlMqEdn1b-12" value="DNI" style="text;html=1;align=center;verticalAlign=middle;resizable=0;points=[];autosize=1;strokeColor=none;fillColor=none;" parent="1" vertex="1">
          <mxGeometry x="185" y="558" width="40" height="30" as="geometry" />
        </mxCell>
        <mxCell id="3ISoc4VKii2FlMqEdn1b-14" value="Nombre" style="text;html=1;align=center;verticalAlign=middle;resizable=0;points=[];autosize=1;strokeColor=none;fillColor=none;" parent="1" vertex="1">
          <mxGeometry x="145" y="578" width="70" height="30" as="geometry" />
        </mxCell>
        <mxCell id="3ISoc4VKii2FlMqEdn1b-16" value="Dirección" style="text;html=1;align=center;verticalAlign=middle;resizable=0;points=[];autosize=1;strokeColor=none;fillColor=none;" parent="1" vertex="1">
          <mxGeometry x="70" y="578" width="70" height="30" as="geometry" />
        </mxCell>
        <mxCell id="3ISoc4VKii2FlMqEdn1b-19" value="nº expediente" style="text;html=1;align=center;verticalAlign=middle;resizable=0;points=[];autosize=1;strokeColor=none;fillColor=none;" parent="1" vertex="1">
          <mxGeometry x="80" y="48" width="100" height="30" as="geometry" />
        </mxCell>
        <mxCell id="3ISoc4VKii2FlMqEdn1b-21" value="DNI.c" style="text;html=1;align=center;verticalAlign=middle;resizable=0;points=[];autosize=1;strokeColor=none;fillColor=none;" parent="1" vertex="1">
          <mxGeometry x="140" y="60" width="50" height="30" as="geometry" />
        </mxCell>
        <mxCell id="3ISoc4VKii2FlMqEdn1b-24" value="DNI" style="text;html=1;align=center;verticalAlign=middle;resizable=0;points=[];autosize=1;strokeColor=none;fillColor=none;" parent="1" vertex="1">
          <mxGeometry x="430" y="40" width="40" height="30" as="geometry" />
        </mxCell>
        <mxCell id="3ISoc4VKii2FlMqEdn1b-26" value="Nombre" style="text;html=1;align=center;verticalAlign=middle;resizable=0;points=[];autosize=1;strokeColor=none;fillColor=none;" parent="1" vertex="1">
          <mxGeometry x="460" y="48" width="70" height="30" as="geometry" />
        </mxCell>
        <mxCell id="3ISoc4VKii2FlMqEdn1b-28" value="Dirección" style="text;html=1;align=center;verticalAlign=middle;resizable=0;points=[];autosize=1;strokeColor=none;fillColor=none;" parent="1" vertex="1">
          <mxGeometry x="500" y="70" width="70" height="30" as="geometry" />
        </mxCell>
        <mxCell id="3ISoc4VKii2FlMqEdn1b-30" value="f.inicio" style="text;html=1;align=center;verticalAlign=middle;resizable=0;points=[];autosize=1;strokeColor=none;fillColor=none;" parent="1" vertex="1">
          <mxGeometry x="10" y="128" width="60" height="30" as="geometry" />
        </mxCell>
        <mxCell id="3ISoc4VKii2FlMqEdn1b-32" value="f.archivo" style="text;html=1;align=center;verticalAlign=middle;resizable=0;points=[];autosize=1;strokeColor=none;fillColor=none;" parent="1" vertex="1">
          <mxGeometry x="5" y="155" width="70" height="30" as="geometry" />
        </mxCell>
        <mxCell id="3ISoc4VKii2FlMqEdn1b-34" value="Estado" style="text;html=1;align=center;verticalAlign=middle;resizable=0;points=[];autosize=1;strokeColor=none;fillColor=none;" parent="1" vertex="1">
          <mxGeometry x="70" y="228" width="60" height="30" as="geometry" />
        </mxCell>
        <mxCell id="3ISoc4VKii2FlMqEdn1b-35" value="1" style="text;html=1;align=center;verticalAlign=middle;resizable=0;points=[];autosize=1;strokeColor=none;fillColor=none;" parent="1" vertex="1">
          <mxGeometry x="165" y="438" width="30" height="30" as="geometry" />
        </mxCell>
        <mxCell id="3ISoc4VKii2FlMqEdn1b-36" value="n" style="text;html=1;align=center;verticalAlign=middle;resizable=0;points=[];autosize=1;strokeColor=none;fillColor=none;" parent="1" vertex="1">
          <mxGeometry x="165" y="198" width="30" height="30" as="geometry" />
        </mxCell>
        <mxCell id="3ISoc4VKii2FlMqEdn1b-37" value="1" style="text;html=1;align=center;verticalAlign=middle;resizable=0;points=[];autosize=1;strokeColor=none;fillColor=none;" parent="1" vertex="1">
          <mxGeometry x="115" y="198" width="30" height="30" as="geometry" />
        </mxCell>
        <mxCell id="3ISoc4VKii2FlMqEdn1b-38" value="1" style="text;html=1;align=center;verticalAlign=middle;resizable=0;points=[];autosize=1;strokeColor=none;fillColor=none;" parent="1" vertex="1">
          <mxGeometry x="105" y="438" width="30" height="30" as="geometry" />
        </mxCell>
        <mxCell id="3ISoc4VKii2FlMqEdn1b-39" value="(1,n)" style="text;html=1;align=center;verticalAlign=middle;resizable=0;points=[];autosize=1;strokeColor=none;fillColor=none;" parent="1" vertex="1">
          <mxGeometry x="155" y="288" width="50" height="30" as="geometry" />
        </mxCell>
        <mxCell id="3ISoc4VKii2FlMqEdn1b-41" value="1" style="text;html=1;align=center;verticalAlign=middle;resizable=0;points=[];autosize=1;strokeColor=none;fillColor=none;" parent="1" vertex="1">
          <mxGeometry x="205" y="138" width="30" height="30" as="geometry" />
        </mxCell>
        <mxCell id="3ISoc4VKii2FlMqEdn1b-42" value="0" style="text;html=1;align=center;verticalAlign=middle;resizable=0;points=[];autosize=1;strokeColor=none;fillColor=none;" parent="1" vertex="1">
          <mxGeometry x="395" y="138" width="30" height="30" as="geometry" />
        </mxCell>
        <mxCell id="3ISoc4VKii2FlMqEdn1b-43" value="n" style="text;html=1;align=center;verticalAlign=middle;resizable=0;points=[];autosize=1;strokeColor=none;fillColor=none;" parent="1" vertex="1">
          <mxGeometry x="395" y="170" width="30" height="30" as="geometry" />
        </mxCell>
        <mxCell id="3ISoc4VKii2FlMqEdn1b-44" value="1" style="text;html=1;align=center;verticalAlign=middle;resizable=0;points=[];autosize=1;strokeColor=none;fillColor=none;" parent="1" vertex="1">
          <mxGeometry x="205" y="168" width="30" height="30" as="geometry" />
        </mxCell>
        <mxCell id="3ISoc4VKii2FlMqEdn1b-45" value="(0,n)" style="text;html=1;align=center;verticalAlign=middle;resizable=0;points=[];autosize=1;strokeColor=none;fillColor=none;" parent="1" vertex="1">
          <mxGeometry x="295" y="98" width="50" height="30" as="geometry" />
        </mxCell>
        <mxCell id="nELZM0st5H0PtVtjxEsz-1" value="" style="rounded=0;whiteSpace=wrap;html=1;fillColor=none;" vertex="1" parent="1">
          <mxGeometry x="105" y="145" width="90" height="50" as="geometry" />
        </mxCell>
      </root>
    </mxGraphModel>
  </diagram>
</mxfile>
